<?xml version="1.0" encoding="UTF-8"?>
<!DOCTYPE svg PUBLIC "-//W3C//DTD SVG 1.1//EN" "http://www.w3.org/Graphics/SVG/1.1/DTD/svg11.dtd">
<svg xmlns="http://www.w3.org/2000/svg" version="1.1" width="310px" height="163px" style="shape-rendering:geometricPrecision; text-rendering:geometricPrecision; image-rendering:optimizeQuality; fill-rule:evenodd; clip-rule:evenodd" xmlns:xlink="http://www.w3.org/1999/xlink">
<g><path style="opacity:1" fill="#3c3b6e" d="M -0.5,-0.5 C 40.8333,-0.5 82.1667,-0.5 123.5,-0.5C 123.5,3.5 123.5,7.5 123.5,11.5C 123.5,15.8333 123.5,20.1667 123.5,24.5C 123.5,28.5 123.5,32.5 123.5,36.5C 123.5,40.8333 123.5,45.1667 123.5,49.5C 123.5,53.8333 123.5,58.1667 123.5,62.5C 123.5,66.5 123.5,70.5 123.5,74.5C 123.5,78.8333 123.5,83.1667 123.5,87.5C 82.1667,87.5 40.8333,87.5 -0.5,87.5C -0.5,58.1667 -0.5,28.8333 -0.5,-0.5 Z"/></g>
<g><path style="opacity:1" fill="#b12032" d="M 123.5,-0.5 C 185.5,-0.5 247.5,-0.5 309.5,-0.5C 309.5,3.5 309.5,7.5 309.5,11.5C 247.5,11.5 185.5,11.5 123.5,11.5C 123.5,7.5 123.5,3.5 123.5,-0.5 Z"/></g>
<g><path style="opacity:1" fill="#e8e8ed" d="M 9.5,3.5 C 10.404,4.20895 10.7373,5.20895 10.5,6.5C 11.8734,6.34332 13.2068,6.50999 14.5,7C 13.2283,8.30678 12.2283,9.80678 11.5,11.5C 10.2798,10.2889 9.11314,10.2889 8,11.5C 7.72654,9.67109 6.89321,8.17109 5.5,7C 7.91019,6.9428 9.24352,5.77613 9.5,3.5 Z"/></g>
<g><path style="opacity:1" fill="#e8e8ed" d="M 50.5,3.5 C 51.4268,5.57616 53.0935,6.74283 55.5,7C 54.1068,8.17109 53.2735,9.67109 53,11.5C 51.8869,10.2889 50.7202,10.2889 49.5,11.5C 48.7717,9.80678 47.7717,8.30678 46.5,7C 47.7932,6.50999 49.1266,6.34332 50.5,6.5C 50.5,5.5 50.5,4.5 50.5,3.5 Z"/></g>
<g><path style="opacity:1" fill="#e8e8ed" d="M 71.5,3.5 C 72.404,4.20895 72.7373,5.20895 72.5,6.5C 73.8734,6.34332 75.2068,6.50999 76.5,7C 75.2283,8.30678 74.2283,9.80678 73.5,11.5C 72.2798,10.2889 71.1131,10.2889 70,11.5C 69.7265,9.67109 68.8932,8.17109 67.5,7C 69.9102,6.9428 71.2435,5.77613 71.5,3.5 Z"/></g>
<g><path style="opacity:1" fill="#e8e8ed" d="M 112.5,3.5 C 113.427,5.57616 115.093,6.74283 117.5,7C 116.107,8.17109 115.273,9.67109 115,11.5C 113.887,10.2889 112.72,10.2889 111.5,11.5C 110.772,9.80678 109.772,8.30678 108.5,7C 109.793,6.50999 111.127,6.34332 112.5,6.5C 112.5,5.5 112.5,4.5 112.5,3.5 Z"/></g>
<g><path style="opacity:1" fill="#e6e5eb" d="M 29.5,3.5 C 31.0481,3.82124 31.7148,4.82124 31.5,6.5C 35.0993,6.26185 35.4327,7.26185 32.5,9.5C 33.847,13.1096 33.1804,13.4429 30.5,10.5C 27.8196,13.4429 27.153,13.1096 28.5,9.5C 25.5673,7.26185 25.9007,6.26185 29.5,6.5C 29.5,5.5 29.5,4.5 29.5,3.5 Z"/></g>
<g><path style="opacity:1" fill="#e6e5eb" d="M 91.5,3.5 C 93.0481,3.82124 93.7148,4.82124 93.5,6.5C 97.0993,6.26185 97.4327,7.26185 94.5,9.5C 95.847,13.1096 95.1804,13.4429 92.5,10.5C 89.8196,13.4429 89.153,13.1096 90.5,9.5C 87.5673,7.26185 87.9007,6.26185 91.5,6.5C 91.5,5.5 91.5,4.5 91.5,3.5 Z"/></g>
<g><path style="opacity:1" fill="#fcf8f8" d="M 123.5,11.5 C 185.5,11.5 247.5,11.5 309.5,11.5C 309.5,15.8333 309.5,20.1667 309.5,24.5C 247.5,24.5 185.5,24.5 123.5,24.5C 123.5,20.1667 123.5,15.8333 123.5,11.5 Z"/></g>
<g><path style="opacity:1" fill="#e3e3e9" d="M 19.5,12.5 C 20.7432,14.1639 22.4098,15.3305 24.5,16C 23.1068,17.1711 22.2735,18.6711 22,20.5C 20.8869,19.2889 19.7202,19.2889 18.5,20.5C 17.8586,18.7045 16.8586,17.2045 15.5,16C 16.7932,15.51 18.1266,15.3433 19.5,15.5C 19.5,14.5 19.5,13.5 19.5,12.5 Z"/></g>
<g><path style="opacity:1" fill="#e9e9ee" d="M 40.5,12.5 C 41.404,13.209 41.7373,14.209 41.5,15.5C 46.2203,15.2254 46.5537,16.0588 42.5,18C 43.4506,18.7175 43.6172,19.5509 43,20.5C 41.6667,19.1667 40.3333,19.1667 39,20.5C 38.7265,18.6711 37.8932,17.1711 36.5,16C 38.5503,15.5838 39.8836,14.4171 40.5,12.5 Z"/></g>
<g><path style="opacity:1" fill="#e3e3e9" d="M 81.5,12.5 C 82.7432,14.1639 84.4098,15.3305 86.5,16C 85.1068,17.1711 84.2735,18.6711 84,20.5C 82.8869,19.2889 81.7202,19.2889 80.5,20.5C 79.8586,18.7045 78.8586,17.2045 77.5,16C 78.7932,15.51 80.1266,15.3433 81.5,15.5C 81.5,14.5 81.5,13.5 81.5,12.5 Z"/></g>
<g><path style="opacity:1" fill="#e9e9ee" d="M 102.5,12.5 C 103.404,13.209 103.737,14.209 103.5,15.5C 108.22,15.2254 108.554,16.0588 104.5,18C 105.451,18.7175 105.617,19.5509 105,20.5C 103.667,19.1667 102.333,19.1667 101,20.5C 100.727,18.6711 99.8932,17.1711 98.5,16C 100.55,15.5838 101.884,14.4171 102.5,12.5 Z"/></g>
<g><path style="opacity:1" fill="#e9e9ee" d="M 60.5,12.5 C 62.0481,12.8212 62.7148,13.8212 62.5,15.5C 63.552,15.3505 64.552,15.5172 65.5,16C 63.6987,17.3868 63.0321,18.8868 63.5,20.5C 61.8651,19.6698 60.1984,19.5031 58.5,20C 59.727,18.4126 59.3937,17.0793 57.5,16C 58.448,15.5172 59.448,15.3505 60.5,15.5C 60.5,14.5 60.5,13.5 60.5,12.5 Z"/></g>
<g><path style="opacity:1" fill="#e5e5eb" d="M 9.5,21.5 C 10.404,22.209 10.7373,23.209 10.5,24.5C 11.552,24.3505 12.552,24.5172 13.5,25C 12.7734,26.3988 12.2734,27.8988 12,29.5C 10.2134,28.6569 8.38005,28.4902 6.5,29C 7.9255,27.2859 7.59217,25.9525 5.5,25C 7.55029,24.5838 8.88363,23.4171 9.5,21.5 Z"/></g>
<g><path style="opacity:1" fill="#e7e7ec" d="M 50.5,21.5 C 51.7432,23.1639 53.4098,24.3305 55.5,25C 54.0325,26.0975 53.1992,27.5975 53,29.5C 51.6667,28.1667 50.3333,28.1667 49,29.5C 48.7266,27.8988 48.2266,26.3988 47.5,25C 48.448,24.5172 49.448,24.3505 50.5,24.5C 50.5,23.5 50.5,22.5 50.5,21.5 Z"/></g>
<g><path style="opacity:1" fill="#e5e5eb" d="M 71.5,21.5 C 72.404,22.209 72.7373,23.209 72.5,24.5C 73.552,24.3505 74.552,24.5172 75.5,25C 74.7734,26.3988 74.2734,27.8988 74,29.5C 72.2134,28.6569 70.3801,28.4902 68.5,29C 69.9255,27.2859 69.5922,25.9525 67.5,25C 69.5503,24.5838 70.8836,23.4171 71.5,21.5 Z"/></g>
<g><path style="opacity:1" fill="#e7e7ec" d="M 112.5,21.5 C 113.743,23.1639 115.41,24.3305 117.5,25C 116.033,26.0975 115.199,27.5975 115,29.5C 113.667,28.1667 112.333,28.1667 111,29.5C 110.727,27.8988 110.227,26.3988 109.5,25C 110.448,24.5172 111.448,24.3505 112.5,24.5C 112.5,23.5 112.5,22.5 112.5,21.5 Z"/></g>
<g><path style="opacity:1" fill="#dedee5" d="M 29.5,21.5 C 31.0481,21.8212 31.7148,22.8212 31.5,24.5C 34.999,24.259 35.3323,25.0924 32.5,27C 33.7112,27.8928 33.7112,28.7261 32.5,29.5C 30.7648,28.943 29.0982,28.6097 27.5,28.5C 28.6682,27.0944 28.3348,25.9277 26.5,25C 27.448,24.5172 28.448,24.3505 29.5,24.5C 29.5,23.5 29.5,22.5 29.5,21.5 Z"/></g>
<g><path style="opacity:1" fill="#dedee5" d="M 91.5,21.5 C 93.0481,21.8212 93.7148,22.8212 93.5,24.5C 96.999,24.259 97.3323,25.0924 94.5,27C 95.7112,27.8928 95.7112,28.7261 94.5,29.5C 92.7648,28.943 91.0982,28.6097 89.5,28.5C 90.6682,27.0944 90.3348,25.9277 88.5,25C 89.448,24.5172 90.448,24.3505 91.5,24.5C 91.5,23.5 91.5,22.5 91.5,21.5 Z"/></g>
<g><path style="opacity:1" fill="#b12133" d="M 123.5,24.5 C 185.5,24.5 247.5,24.5 309.5,24.5C 309.5,28.5 309.5,32.5 309.5,36.5C 247.5,36.5 185.5,36.5 123.5,36.5C 123.5,32.5 123.5,28.5 123.5,24.5 Z"/></g>
<g><path style="opacity:1" fill="#d9d9e1" d="M 19.5,30.5 C 21.0145,31.6801 22.6812,32.6801 24.5,33.5C 22.633,35.0361 21.9663,36.7027 22.5,38.5C 20.9019,36.0266 19.4019,36.0266 18,38.5C 17.8371,36.324 17.0037,34.4907 15.5,33C 17.437,32.8784 18.7703,32.045 19.5,30.5 Z"/></g>
<g><path style="opacity:1" fill="#dadae2" d="M 40.5,30.5 C 41.8304,31.8321 43.4971,32.6655 45.5,33C 43.9963,34.4907 43.1629,36.324 43,38.5C 42.3333,37.8333 41.6667,37.1667 41,36.5C 38.5064,39.3202 37.673,39.1535 38.5,36C 37.9777,35.0497 37.311,34.2164 36.5,33.5C 38.1836,32.8503 39.5169,31.8503 40.5,30.5 Z"/></g>
<g><path style="opacity:1" fill="#d9d9e1" d="M 81.5,30.5 C 83.0145,31.6801 84.6812,32.6801 86.5,33.5C 84.633,35.0361 83.9663,36.7027 84.5,38.5C 82.9019,36.0266 81.4019,36.0266 80,38.5C 79.8371,36.324 79.0037,34.4907 77.5,33C 79.437,32.8784 80.7703,32.045 81.5,30.5 Z"/></g>
<g><path style="opacity:1" fill="#dadae2" d="M 102.5,30.5 C 103.83,31.8321 105.497,32.6655 107.5,33C 105.996,34.4907 105.163,36.324 105,38.5C 104.333,37.8333 103.667,37.1667 103,36.5C 100.506,39.3202 99.673,39.1535 100.5,36C 99.9777,35.0497 99.311,34.2164 98.5,33.5C 100.184,32.8503 101.517,31.8503 102.5,30.5 Z"/></g>
<g><path style="opacity:1" fill="#d9d9e1" d="M 60.5,30.5 C 62.3386,31.5819 64.3386,32.4153 66.5,33C 65.5,33.8333 64.5,34.6667 63.5,35.5C 64.847,39.1096 64.1804,39.4429 61.5,36.5C 58.8196,39.4429 58.153,39.1096 59.5,35.5C 58.5,34.6667 57.5,33.8333 56.5,33C 58.437,32.8784 59.7703,32.045 60.5,30.5 Z"/></g>
<g><path style="opacity:1" fill="#fcf6f7" d="M 123.5,36.5 C 185.5,36.5 247.5,36.5 309.5,36.5C 309.5,40.8333 309.5,45.1667 309.5,49.5C 247.5,49.5 185.5,49.5 123.5,49.5C 123.5,45.1667 123.5,40.8333 123.5,36.5 Z"/></g>
<g><path style="opacity:1" fill="#e3e2e9" d="M 9.5,38.5 C 10.404,39.209 10.7373,40.209 10.5,41.5C 11.8734,41.3433 13.2068,41.51 14.5,42C 12.9963,43.4907 12.1629,45.324 12,47.5C 11.0723,45.6652 9.9056,45.3318 8.5,46.5C 7.77167,44.8068 6.77167,43.3068 5.5,42C 7.91019,41.9428 9.24352,40.7761 9.5,38.5 Z"/></g>
<g><path style="opacity:1" fill="#e1e1e8" d="M 50.5,38.5 C 51.4268,40.5762 53.0935,41.7428 55.5,42C 54.2283,43.3068 53.2283,44.8068 52.5,46.5C 51.0944,45.3318 49.9277,45.6652 49,47.5C 48.8371,45.324 48.0037,43.4907 46.5,42C 47.7932,41.51 49.1266,41.3433 50.5,41.5C 50.5,40.5 50.5,39.5 50.5,38.5 Z"/></g>
<g><path style="opacity:1" fill="#e3e2e9" d="M 71.5,38.5 C 72.404,39.209 72.7373,40.209 72.5,41.5C 73.8734,41.3433 75.2068,41.51 76.5,42C 74.9963,43.4907 74.1629,45.324 74,47.5C 73.0723,45.6652 71.9056,45.3318 70.5,46.5C 69.7717,44.8068 68.7717,43.3068 67.5,42C 69.9102,41.9428 71.2435,40.7761 71.5,38.5 Z"/></g>
<g><path style="opacity:1" fill="#e1e1e8" d="M 112.5,38.5 C 113.427,40.5762 115.093,41.7428 117.5,42C 116.228,43.3068 115.228,44.8068 114.5,46.5C 113.094,45.3318 111.928,45.6652 111,47.5C 110.837,45.324 110.004,43.4907 108.5,42C 109.793,41.51 111.127,41.3433 112.5,41.5C 112.5,40.5 112.5,39.5 112.5,38.5 Z"/></g>
<g><path style="opacity:1" fill="#e6e5eb" d="M 29.5,39.5 C 31.2128,40.305 32.8794,41.305 34.5,42.5C 33.8333,43.1667 33.1667,43.8333 32.5,44.5C 33.847,48.1096 33.1804,48.4429 30.5,45.5C 27.8196,48.4429 27.153,48.1096 28.5,44.5C 28.0233,43.5224 27.3567,42.6891 26.5,42C 28.1193,41.7645 29.1193,40.9311 29.5,39.5 Z"/></g>
<g><path style="opacity:1" fill="#e6e5eb" d="M 91.5,39.5 C 93.2128,40.305 94.8794,41.305 96.5,42.5C 95.8333,43.1667 95.1667,43.8333 94.5,44.5C 95.847,48.1096 95.1804,48.4429 92.5,45.5C 89.8196,48.4429 89.153,48.1096 90.5,44.5C 90.0233,43.5224 89.3567,42.6891 88.5,42C 90.1193,41.7645 91.1193,40.9311 91.5,39.5 Z"/></g>
<g><path style="opacity:1" fill="#e7e7ec" d="M 19.5,47.5 C 20.4268,49.5762 22.0935,50.7428 24.5,51C 23.1068,52.1711 22.2735,53.6711 22,55.5C 20.8869,54.2889 19.7202,54.2889 18.5,55.5C 17.8586,53.7045 16.8586,52.2045 15.5,51C 16.7932,50.51 18.1266,50.3433 19.5,50.5C 19.5,49.5 19.5,48.5 19.5,47.5 Z"/></g>
<g><path style="opacity:1" fill="#eaeaef" d="M 40.5,47.5 C 41.404,48.209 41.7373,49.209 41.5,50.5C 46.2203,50.2254 46.5537,51.0588 42.5,53C 43.7112,53.8928 43.7112,54.7261 42.5,55.5C 41.2798,54.2889 40.1131,54.2889 39,55.5C 38.7265,53.6711 37.8932,52.1711 36.5,51C 38.9102,50.9428 40.2435,49.7761 40.5,47.5 Z"/></g>
<g><path style="opacity:1" fill="#e7e7ec" d="M 81.5,47.5 C 82.4268,49.5762 84.0935,50.7428 86.5,51C 85.1068,52.1711 84.2735,53.6711 84,55.5C 82.8869,54.2889 81.7202,54.2889 80.5,55.5C 79.8586,53.7045 78.8586,52.2045 77.5,51C 78.7932,50.51 80.1266,50.3433 81.5,50.5C 81.5,49.5 81.5,48.5 81.5,47.5 Z"/></g>
<g><path style="opacity:1" fill="#eaeaef" d="M 102.5,47.5 C 103.404,48.209 103.737,49.209 103.5,50.5C 108.22,50.2254 108.554,51.0588 104.5,53C 105.711,53.8928 105.711,54.7261 104.5,55.5C 103.28,54.2889 102.113,54.2889 101,55.5C 100.727,53.6711 99.8932,52.1711 98.5,51C 100.91,50.9428 102.244,49.7761 102.5,47.5 Z"/></g>
<g><path style="opacity:1" fill="#e6e5eb" d="M 60.5,47.5 C 62.0481,47.8212 62.7148,48.8212 62.5,50.5C 66.0993,50.2619 66.4327,51.2619 63.5,53.5C 64.847,57.1096 64.1804,57.4429 61.5,54.5C 58.8196,57.4429 58.153,57.1096 59.5,53.5C 56.5673,51.2619 56.9007,50.2619 60.5,50.5C 60.5,49.5 60.5,48.5 60.5,47.5 Z"/></g>
<g><path style="opacity:1" fill="#b42d3a" d="M 123.5,49.5 C 185.5,49.5 247.5,49.5 309.5,49.5C 309.5,53.8333 309.5,58.1667 309.5,62.5C 247.5,62.5 185.5,62.5 123.5,62.5C 123.5,58.1667 123.5,53.8333 123.5,49.5 Z"/></g>
<g><path style="opacity:1" fill="#e9e9ee" d="M 9.5,56.5 C 10.404,57.209 10.7373,58.209 10.5,59.5C 11.552,59.3505 12.552,59.5172 13.5,60C 12.7734,61.3988 12.2734,62.8988 12,64.5C 10.6667,63.1667 9.33333,63.1667 8,64.5C 7.80083,62.5975 6.96749,61.0975 5.5,60C 7.55029,59.5838 8.88363,58.4171 9.5,56.5 Z"/></g>
<g><path style="opacity:1" fill="#e9e9ee" d="M 50.5,56.5 C 51.7432,58.1639 53.4098,59.3305 55.5,60C 54.0325,61.0975 53.1992,62.5975 53,64.5C 51.6667,63.1667 50.3333,63.1667 49,64.5C 48.7266,62.8988 48.2266,61.3988 47.5,60C 48.448,59.5172 49.448,59.3505 50.5,59.5C 50.5,58.5 50.5,57.5 50.5,56.5 Z"/></g>
<g><path style="opacity:1" fill="#e9e9ee" d="M 71.5,56.5 C 72.404,57.209 72.7373,58.209 72.5,59.5C 73.552,59.3505 74.552,59.5172 75.5,60C 74.7734,61.3988 74.2734,62.8988 74,64.5C 72.6667,63.1667 71.3333,63.1667 70,64.5C 69.8008,62.5975 68.9675,61.0975 67.5,60C 69.5503,59.5838 70.8836,58.4171 71.5,56.5 Z"/></g>
<g><path style="opacity:1" fill="#e9e9ee" d="M 112.5,56.5 C 113.743,58.1639 115.41,59.3305 117.5,60C 116.033,61.0975 115.199,62.5975 115,64.5C 113.667,63.1667 112.333,63.1667 111,64.5C 110.727,62.8988 110.227,61.3988 109.5,60C 110.448,59.5172 111.448,59.3505 112.5,59.5C 112.5,58.5 112.5,57.5 112.5,56.5 Z"/></g>
<g><path style="opacity:1" fill="#e6e6eb" d="M 29.5,56.5 C 31.0481,56.8212 31.7148,57.8212 31.5,59.5C 32.552,59.3505 33.552,59.5172 34.5,60C 32.6987,61.3868 32.0321,62.8868 32.5,64.5C 30.8651,63.6698 29.1984,63.5031 27.5,64C 28.727,62.4126 28.3937,61.0793 26.5,60C 27.448,59.5172 28.448,59.3505 29.5,59.5C 29.5,58.5 29.5,57.5 29.5,56.5 Z"/></g>
<g><path style="opacity:1" fill="#e6e6eb" d="M 91.5,56.5 C 93.0481,56.8212 93.7148,57.8212 93.5,59.5C 94.552,59.3505 95.552,59.5172 96.5,60C 94.6987,61.3868 94.0321,62.8868 94.5,64.5C 92.8651,63.6698 91.1984,63.5031 89.5,64C 90.727,62.4126 90.3937,61.0793 88.5,60C 89.448,59.5172 90.448,59.3505 91.5,59.5C 91.5,58.5 91.5,57.5 91.5,56.5 Z"/></g>
<g><path style="opacity:1" fill="#fefffe" d="M 123.5,62.5 C 185.5,62.5 247.5,62.5 309.5,62.5C 309.5,66.5 309.5,70.5 309.5,74.5C 247.5,74.5 185.5,74.5 123.5,74.5C 123.5,70.5 123.5,66.5 123.5,62.5 Z"/></g>
<g><path style="opacity:1" fill="#d7d6df" d="M 19.5,65.5 C 21.0145,66.6801 22.6812,67.6801 24.5,68.5C 22.633,70.0361 21.9663,71.7027 22.5,73.5C 20.9019,71.0266 19.4019,71.0266 18,73.5C 17.8371,71.324 17.0037,69.4907 15.5,68C 17.437,67.8784 18.7703,67.045 19.5,65.5 Z"/></g>
<g><path style="opacity:1" fill="#eaeaef" d="M 40.5,65.5 C 41.404,66.209 41.7373,67.209 41.5,68.5C 42.552,68.3505 43.552,68.5172 44.5,69C 43.7734,70.3988 43.2734,71.8988 43,73.5C 42.3333,72.8333 41.6667,72.1667 41,71.5C 40.1627,73.0074 38.9961,73.5074 37.5,73C 38.8333,71.6667 38.8333,70.3333 37.5,69C 39.0557,68.2798 40.0557,67.1132 40.5,65.5 Z"/></g>
<g><path style="opacity:1" fill="#d7d6df" d="M 81.5,65.5 C 83.0145,66.6801 84.6812,67.6801 86.5,68.5C 84.633,70.0361 83.9663,71.7027 84.5,73.5C 82.9019,71.0266 81.4019,71.0266 80,73.5C 79.8371,71.324 79.0037,69.4907 77.5,68C 79.437,67.8784 80.7703,67.045 81.5,65.5 Z"/></g>
<g><path style="opacity:1" fill="#eaeaef" d="M 102.5,65.5 C 103.404,66.209 103.737,67.209 103.5,68.5C 104.552,68.3505 105.552,68.5172 106.5,69C 105.773,70.3988 105.273,71.8988 105,73.5C 104.333,72.8333 103.667,72.1667 103,71.5C 102.163,73.0074 100.996,73.5074 99.5,73C 100.833,71.6667 100.833,70.3333 99.5,69C 101.056,68.2798 102.056,67.1132 102.5,65.5 Z"/></g>
<g><path style="opacity:1" fill="#e3e3e9" d="M 60.5,65.5 C 62.0481,65.8212 62.7148,66.8212 62.5,68.5C 65.7973,68.3287 66.1306,68.9954 63.5,70.5C 64.3256,71.451 64.4922,72.451 64,73.5C 62.1114,72.9026 60.2781,72.5693 58.5,72.5C 60.0224,70.8437 59.689,69.677 57.5,69C 58.448,68.5172 59.448,68.3505 60.5,68.5C 60.5,67.5 60.5,66.5 60.5,65.5 Z"/></g>
<g><path style="opacity:1" fill="#e2e2e8" d="M 9.5,73.5 C 10.404,74.209 10.7373,75.209 10.5,76.5C 11.8734,76.3433 13.2068,76.51 14.5,77C 12.9963,78.4907 12.1629,80.324 12,82.5C 11.0723,80.6652 9.9056,80.3318 8.5,81.5C 7.77167,79.8068 6.77167,78.3068 5.5,77C 7.91019,76.9428 9.24352,75.7761 9.5,73.5 Z"/></g>
<g><path style="opacity:1" fill="#e0e0e7" d="M 50.5,73.5 C 51.4268,75.5762 53.0935,76.7428 55.5,77C 54.2283,78.3068 53.2283,79.8068 52.5,81.5C 51.0944,80.3318 49.9277,80.6652 49,82.5C 48.8371,80.324 48.0037,78.4907 46.5,77C 47.7932,76.51 49.1266,76.3433 50.5,76.5C 50.5,75.5 50.5,74.5 50.5,73.5 Z"/></g>
<g><path style="opacity:1" fill="#e2e2e8" d="M 71.5,73.5 C 72.404,74.209 72.7373,75.209 72.5,76.5C 73.8734,76.3433 75.2068,76.51 76.5,77C 74.9963,78.4907 74.1629,80.324 74,82.5C 73.0723,80.6652 71.9056,80.3318 70.5,81.5C 69.7717,79.8068 68.7717,78.3068 67.5,77C 69.9102,76.9428 71.2435,75.7761 71.5,73.5 Z"/></g>
<g><path style="opacity:1" fill="#e0e0e7" d="M 112.5,73.5 C 113.427,75.5762 115.093,76.7428 117.5,77C 116.228,78.3068 115.228,79.8068 114.5,81.5C 113.094,80.3318 111.928,80.6652 111,82.5C 110.837,80.324 110.004,78.4907 108.5,77C 109.793,76.51 111.127,76.3433 112.5,76.5C 112.5,75.5 112.5,74.5 112.5,73.5 Z"/></g>
<g><path style="opacity:1" fill="#dfdfe6" d="M 29.5,74.5 C 31.3386,75.5819 33.3386,76.4153 35.5,77C 34.5,77.8333 33.5,78.6667 32.5,79.5C 33.847,83.1096 33.1804,83.4429 30.5,80.5C 27.8196,83.4429 27.153,83.1096 28.5,79.5C 27.8333,78.8333 27.1667,78.1667 26.5,77.5C 27.9935,76.8589 28.9935,75.8589 29.5,74.5 Z"/></g>
<g><path style="opacity:1" fill="#dfdfe6" d="M 91.5,74.5 C 93.3386,75.5819 95.3386,76.4153 97.5,77C 96.5,77.8333 95.5,78.6667 94.5,79.5C 95.847,83.1096 95.1804,83.4429 92.5,80.5C 89.8196,83.4429 89.153,83.1096 90.5,79.5C 89.8333,78.8333 89.1667,78.1667 88.5,77.5C 89.9935,76.8589 90.9935,75.8589 91.5,74.5 Z"/></g>
<g><path style="opacity:1" fill="#b42d3a" d="M 123.5,74.5 C 185.5,74.5 247.5,74.5 309.5,74.5C 309.5,78.8333 309.5,83.1667 309.5,87.5C 247.5,87.5 185.5,87.5 123.5,87.5C 123.5,83.1667 123.5,78.8333 123.5,74.5 Z"/></g>
<g><path style="opacity:1" fill="#fefffe" d="M -0.5,87.5 C 40.8333,87.5 82.1667,87.5 123.5,87.5C 185.5,87.5 247.5,87.5 309.5,87.5C 309.5,91.5 309.5,95.5 309.5,99.5C 206.167,99.5 102.833,99.5 -0.5,99.5C -0.5,95.5 -0.5,91.5 -0.5,87.5 Z"/></g>
<g><path style="opacity:1" fill="#b42d3a" d="M -0.5,99.5 C 102.833,99.5 206.167,99.5 309.5,99.5C 309.5,103.833 309.5,108.167 309.5,112.5C 206.167,112.5 102.833,112.5 -0.5,112.5C -0.5,108.167 -0.5,103.833 -0.5,99.5 Z"/></g>
<g><path style="opacity:1" fill="#fcf6f7" d="M -0.5,112.5 C 102.833,112.5 206.167,112.5 309.5,112.5C 309.5,116.833 309.5,121.167 309.5,125.5C 206.167,125.5 102.833,125.5 -0.5,125.5C -0.5,121.167 -0.5,116.833 -0.5,112.5 Z"/></g>
<g><path style="opacity:1" fill="#b12133" d="M -0.5,125.5 C 102.833,125.5 206.167,125.5 309.5,125.5C 309.5,129.5 309.5,133.5 309.5,137.5C 206.167,137.5 102.833,137.5 -0.5,137.5C -0.5,133.5 -0.5,129.5 -0.5,125.5 Z"/></g>
<g><path style="opacity:1" fill="#fcf8f8" d="M -0.5,137.5 C 102.833,137.5 206.167,137.5 309.5,137.5C 309.5,141.833 309.5,146.167 309.5,150.5C 206.167,150.5 102.833,150.5 -0.5,150.5C -0.5,146.167 -0.5,141.833 -0.5,137.5 Z"/></g>
<g><path style="opacity:1" fill="#b12032" d="M -0.5,150.5 C 102.833,150.5 206.167,150.5 309.5,150.5C 309.5,154.5 309.5,158.5 309.5,162.5C 206.167,162.5 102.833,162.5 -0.5,162.5C -0.5,158.5 -0.5,154.5 -0.5,150.5 Z"/></g>
</svg>
