<?xml version="1.0" encoding="UTF-8"?>
<!DOCTYPE svg PUBLIC "-//W3C//DTD SVG 1.1//EN" "http://www.w3.org/Graphics/SVG/1.1/DTD/svg11.dtd">
<svg xmlns="http://www.w3.org/2000/svg" version="1.1" width="275px" height="183px" style="shape-rendering:geometricPrecision; text-rendering:geometricPrecision; image-rendering:optimizeQuality; fill-rule:evenodd; clip-rule:evenodd" xmlns:xlink="http://www.w3.org/1999/xlink">
<g><path style="opacity:1" fill="#01532f" d="M -0.5,-0.5 C 91.1667,-0.5 182.833,-0.5 274.5,-0.5C 274.5,60.5 274.5,121.5 274.5,182.5C 182.833,182.5 91.1667,182.5 -0.5,182.5C -0.5,121.5 -0.5,60.5 -0.5,-0.5 Z"/></g>
<g><path style="opacity:1" fill="#e2e9e5" d="M 109.5,82.5 C 108.833,80.5 108.167,78.5 107.5,76.5C 107.5,75.1667 107.5,73.8333 107.5,72.5C 105.088,72.756 103.421,71.756 102.5,69.5C 99.0597,70.9206 97.5597,73.5872 98,77.5C 92.5921,85.4536 85.0921,88.9536 75.5,88C 70.6382,85.0509 69.3048,80.8842 71.5,75.5C 71.8333,75.5 72.1667,75.5 72.5,75.5C 71.6636,83.8285 75.3302,86.9952 83.5,85C 87.7789,83.5272 91.7789,81.5272 95.5,79C 96.5914,76.9361 96.7581,74.7695 96,72.5C 92.0113,80.5788 85.5113,84.0788 76.5,83C 75.1772,82.1841 74.5106,81.0174 74.5,79.5C 74.2053,77.2646 74.5386,75.2646 75.5,73.5C 75.1799,79.9972 78.1799,82.1639 84.5,80C 87.8338,78.6686 90.8338,76.8353 93.5,74.5C 91.9223,73.7022 90.2556,73.2022 88.5,73C 85.5544,69.5089 86.3878,67.3422 91,66.5C 93.1628,66.4947 94.6628,67.4947 95.5,69.5C 95.8333,68.5 96.1667,67.5 96.5,66.5C 95.2831,63.9333 93.6165,61.6 91.5,59.5C 88.3955,65.1566 84.5621,65.8233 80,61.5C 79.6667,59.8333 79.3333,58.1667 79,56.5C 78.3333,58.5 77.6667,60.5 77,62.5C 75.8668,64.2112 74.3668,64.7112 72.5,64C 70.3781,60.5528 70.0448,57.0528 71.5,53.5C 71.2924,55.9201 71.6258,58.2534 72.5,60.5C 73.365,61.5827 74.365,61.7494 75.5,61C 76.5338,56.3515 78.5338,52.1849 81.5,48.5C 81.9102,52.1041 82.0769,55.7708 82,59.5C 90.3077,61.1704 92.8077,57.8371 89.5,49.5C 90,48.5 90.5,47.5 91,46.5C 92.7339,50.7265 94.0673,55.0598 95,59.5C 94.5431,55.2157 94.5431,50.8823 95,46.5C 97.2014,48.3658 97.7014,50.5325 96.5,53C 97.007,55.5411 97.6737,58.0411 98.5,60.5C 99.6721,60.0814 100.672,59.4147 101.5,58.5C 99.5156,54.5953 98.8489,50.5953 99.5,46.5C 100.382,47.7598 101.382,48.9264 102.5,50C 101.846,52.3849 101.846,54.8849 102.5,57.5C 102.333,58.8333 102.167,60.1667 102,61.5C 98.9833,63.1202 98.15,65.4535 99.5,68.5C 100.941,67.696 102.441,67.0294 104,66.5C 104.945,66.9054 105.612,67.572 106,68.5C 106.426,61.4294 105.926,54.4294 104.5,47.5C 104.808,46.6919 105.308,46.0253 106,45.5C 108.422,48.4111 108.922,51.5778 107.5,55C 108.029,59.8498 108.696,64.6831 109.5,69.5C 110.892,68.3947 112.059,67.0614 113,65.5C 113.589,67.8633 115.089,68.8633 117.5,68.5C 117.343,67.1266 117.51,65.7932 118,64.5C 119.67,71.1798 117.67,72.8465 112,69.5C 111.333,70.1667 110.667,70.8333 110,71.5C 109.501,75.1516 109.335,78.8183 109.5,82.5 Z"/></g>
<g><path style="opacity:1" fill="#e1e8e5" d="M 132.5,50.5 C 132.02,53.6852 132.686,56.5185 134.5,59C 136.925,59.9859 138.591,59.3193 139.5,57C 138.313,54.2764 137.647,51.4431 137.5,48.5C 137.5,47.8333 137.5,47.1667 137.5,46.5C 137.435,46.0618 137.601,45.7284 138,45.5C 139.788,47.0044 140.288,48.6711 139.5,50.5C 142.122,54.3682 142.122,58.2015 139.5,62C 135.418,63.2931 132.251,62.1265 130,58.5C 125.666,65.2314 121.833,65.0648 118.5,58C 119.33,56.5349 119.496,55.0349 119,53.5C 118,56.1667 117,58.8333 116,61.5C 114.604,63.5268 112.938,63.8602 111,62.5C 109.517,59.2976 109.183,55.9643 110,52.5C 110.287,54.8907 110.787,57.2241 111.5,59.5C 112.365,60.5827 113.365,60.7494 114.5,60C 115.744,55.3456 117.91,51.179 121,47.5C 121.108,51.1765 121.108,54.8432 121,58.5C 123.916,60.0135 126.582,59.6801 129,57.5C 129.405,53.7872 129.405,50.1206 129,46.5C 129.667,45.1667 130.333,45.1667 131,46.5C 131.21,48.0581 131.71,49.3915 132.5,50.5 Z"/></g>
<g><path style="opacity:1" fill="#f6f8f7" d="M 149.5,48.5 C 148.292,47.7659 146.959,47.4326 145.5,47.5C 146.751,45.439 148.418,45.1057 150.5,46.5C 150.137,47.1835 149.804,47.8501 149.5,48.5 Z"/></g>
<g><path style="opacity:1" fill="#c8d5ce" d="M 158.5,45.5 C 159.5,45.5 160.5,45.5 161.5,45.5C 161.778,47.3464 161.111,48.6798 159.5,49.5C 159.891,48.2815 159.224,47.4482 157.5,47C 158.056,46.6174 158.389,46.1174 158.5,45.5 Z"/></g>
<g><path style="opacity:1" fill="#e1e8e4" d="M 167.5,45.5 C 170.88,45.1794 171.713,46.1794 170,48.5C 168.583,47.9221 167.75,46.9221 167.5,45.5 Z"/></g>
<g><path style="opacity:1" fill="#ced9d3" d="M 195.5,45.5 C 199.795,45.2787 200.462,46.6121 197.5,49.5C 197.432,48.2462 196.766,46.9129 195.5,45.5 Z"/></g>
<g><path style="opacity:1" fill="#a9bdb2" d="M 71.5,53.5 C 72.2026,51.2843 73.5359,49.451 75.5,48C 74.2092,44.9746 74.8758,44.6413 77.5,47C 77.9574,47.414 78.2907,47.914 78.5,48.5C 77.0921,49.2432 75.7588,50.0766 74.5,51C 75.1667,51.3333 75.8333,51.6667 76.5,52C 74.9751,53.0086 73.3084,53.5086 71.5,53.5 Z"/></g>
<g><path style="opacity:1" fill="#ced9d3" d="M 83.5,46.5 C 87.254,47.8276 88.4207,50.4942 87,54.5C 86.467,51.495 85.3004,48.8283 83.5,46.5 Z"/></g>
<g><path style="opacity:1" fill="#789786" d="M 145.5,47.5 C 146.959,47.4326 148.292,47.7659 149.5,48.5C 148.306,49.2719 147.306,50.2719 146.5,51.5C 145.833,51.5 145.5,51.1667 145.5,50.5C 145.927,49.2616 145.927,48.2616 145.5,47.5 Z"/></g>
<g><path style="opacity:1" fill="#dbe4df" d="M 158.5,84.5 C 157.833,81.1667 157.167,77.8333 156.5,74.5C 156.665,71.4816 156.498,68.4816 156,65.5C 152.333,62.6645 148.833,59.6645 145.5,56.5C 144.376,54.2083 143.043,52.0417 141.5,50C 141.667,49.5 141.833,49 142,48.5C 143.113,49.305 144.279,49.9717 145.5,50.5C 145.5,51.1667 145.833,51.5 146.5,51.5C 146.938,51.4346 147.272,51.6012 147.5,52C 146.833,52.3333 146.167,52.6667 145.5,53C 154.349,63.8091 157.016,62.1424 153.5,48C 153.974,46.3925 154.641,46.2258 155.5,47.5C 157.737,49.9575 158.071,52.6242 156.5,55.5C 157,58.5 157.5,61.5 158,64.5C 161.038,67.2026 163.705,70.2026 166,73.5C 165.666,65.3173 164.833,57.1507 163.5,49C 163.833,48.1667 164.167,47.3333 164.5,46.5C 167.157,48.9474 167.824,51.7807 166.5,55C 168.209,62.7627 168.709,70.5961 168,78.5C 167.117,81.1024 165.617,83.2691 163.5,85C 164.399,86.2362 165.566,87.0696 167,87.5C 169.658,84.1982 172.325,80.8649 175,77.5C 175.073,67.7604 174.239,58.0937 172.5,48.5C 172.808,47.6919 173.308,47.0253 174,46.5C 176.772,49.0023 177.272,51.5023 175.5,54C 176.573,61.7957 177.406,69.629 178,77.5C 180.195,81.8721 183.195,82.5388 187,79.5C 186.997,72.1367 186.331,64.8033 185,57.5C 182.475,54.3138 179.975,51.1471 177.5,48C 177.833,47.5 178.167,47 178.5,46.5C 180.167,47.6667 181.833,48.8333 183.5,50C 182.346,50.9138 182.513,51.7471 184,52.5C 184.395,45.0413 185.895,44.708 188.5,51.5C 186.607,55.8405 187.774,59.1738 192,61.5C 192.746,56.9578 192.579,52.4578 191.5,48C 191.974,46.3925 192.641,46.2258 193.5,47.5C 193.613,53.8002 194.446,60.1335 196,66.5C 198.826,69.4835 201.159,72.8168 203,76.5C 203.364,67.7987 202.864,59.132 201.5,50.5C 202.089,45.8666 203.422,46.1999 205.5,51.5C 204.833,51.8333 204.167,52.1667 203.5,52.5C 205.346,61.7413 205.846,71.0746 205,80.5C 201.456,86.344 196.289,89.1774 189.5,89C 192.746,87.1414 196.079,85.4748 199.5,84C 200.99,83.2545 201.99,82.0879 202.5,80.5C 201.357,76.2115 199.19,72.5449 196,69.5C 195.667,74.5 195.333,79.5 195,84.5C 194.093,78.5273 193.427,72.5273 193,66.5C 191.667,65.1667 190.333,63.8333 189,62.5C 189,67.8333 189,73.1667 189,78.5C 186.77,85.0768 183.104,86.0768 178,81.5C 176.309,84.1307 175.142,83.7973 174.5,80.5C 172.215,84.1064 169.715,87.4398 167,90.5C 164.679,89.5128 163.013,87.8461 162,85.5C 158.689,87.4926 155.189,88.6592 151.5,89C 153.898,87.4758 156.231,85.9758 158.5,84.5 Z"/></g>
<g><path style="opacity:1" fill="#a6baaf" d="M 114.5,45.5 C 116.121,45.7869 117.121,46.7869 117.5,48.5C 114.111,49.7783 113.111,48.7783 114.5,45.5 Z"/></g>
<g><path style="opacity:1" fill="#7a9988" d="M 137.5,46.5 C 137.5,47.1667 137.5,47.8333 137.5,48.5C 136.221,49.968 134.554,50.6347 132.5,50.5C 133.206,48.1236 134.873,46.7903 137.5,46.5 Z"/></g>
<g><path style="opacity:1" fill="#08522b" d="M 137.5,48.5 C 137.647,51.4431 138.313,54.2764 139.5,57C 138.591,59.3193 136.925,59.9859 134.5,59C 132.686,56.5185 132.02,53.6852 132.5,50.5C 134.554,50.6347 136.221,49.968 137.5,48.5 Z"/></g>
<g><path style="opacity:1" fill="#c4d1ca" d="M 122.5,47.5 C 123.793,46.3552 124.959,46.6885 126,48.5C 126.667,50.8333 126.667,53.1667 126,55.5C 125.996,52.2084 124.83,49.5418 122.5,47.5 Z"/></g>
<g><path style="opacity:1" fill="#a6baaf" d="M 159.5,52.5 C 163.579,53.9553 163.412,55.2886 159,56.5C 158.805,55.1807 158.972,53.8474 159.5,52.5 Z"/></g>
<g><path style="opacity:1" fill="#b9c9c0" d="M 145.5,56.5 C 145.286,58.1439 145.62,59.6439 146.5,61C 145.552,61.4828 144.552,61.6495 143.5,61.5C 141.699,58.7742 142.366,57.1076 145.5,56.5 Z"/></g>
<g><path style="opacity:1" fill="#c9d5cf" d="M 196.5,58.5 C 200.049,59.9567 201.216,62.6234 200,66.5C 199.079,63.6642 197.912,60.9976 196.5,58.5 Z"/></g>
<g><path style="opacity:1" fill="#b9c9c1" d="M 160.5,57.5 C 161.705,58.6719 161.705,60.0052 160.5,61.5C 163.229,63.3671 162.896,64.3671 159.5,64.5C 159.448,62.0971 159.781,59.7638 160.5,57.5 Z"/></g>
<g><path style="opacity:1" fill="#c8d5ce" d="M 170.5,55.5 C 170.929,56.9527 171.096,58.6194 171,60.5C 171.654,59.3044 172.154,59.3044 172.5,60.5C 172.167,61.5 171.5,62.1667 170.5,62.5C 169.286,60.1413 169.286,57.808 170.5,55.5 Z"/></g>
<g><path style="opacity:1" fill="#b7c7be" d="M 180.5,55.5 C 180.794,57.2755 180.96,59.2755 181,61.5C 181.889,60.1118 182.389,60.2785 182.5,62C 180.852,65.3537 179.519,65.187 178.5,61.5C 178.977,59.4035 179.643,57.4035 180.5,55.5 Z"/></g>
<g><path style="opacity:1" fill="#bccbc3" d="M 79.5,68.5 C 79.1667,67.5 78.5,66.8333 77.5,66.5C 78.8049,62.5168 80.1382,62.5168 81.5,66.5C 81.2528,67.7133 80.5862,68.38 79.5,68.5 Z"/></g>
<g><path style="opacity:1" fill="#678c75" d="M 143.5,61.5 C 142.188,63.4788 140.521,65.1455 138.5,66.5C 139.653,67.6868 139.653,68.6868 138.5,69.5C 137.5,68.5 136.5,67.5 135.5,66.5C 134.957,66.44 134.624,66.1067 134.5,65.5C 137.908,64.9013 140.908,63.5679 143.5,61.5 Z"/></g>
<g><path style="opacity:1" fill="#dde5e1" d="M 77.5,66.5 C 76.5,67.8333 75.5,69.1667 74.5,70.5C 72.6214,70.6068 72.2881,70.1068 73.5,69C 72.6919,68.6924 72.0253,68.1924 71.5,67.5C 73.396,66.5344 75.396,66.2011 77.5,66.5 Z"/></g>
<g><path style="opacity:1" fill="#155128" d="M 77.5,66.5 C 78.5,66.8333 79.1667,67.5 79.5,68.5C 77.8333,69.1667 76.1667,69.8333 74.5,70.5C 75.5,69.1667 76.5,67.8333 77.5,66.5 Z"/></g>
<g><path style="opacity:1" fill="#2c613d" d="M 89.5,68.5 C 90.2891,68.7828 90.9558,69.2828 91.5,70C 90.184,70.5281 89.5173,70.0281 89.5,68.5 Z"/></g>
<g><path style="opacity:1" fill="#b7c7be" d="M 153.5,66.5 C 153.692,68.5454 153.692,70.5454 153.5,72.5C 152.306,70.4844 152.306,68.4844 153.5,66.5 Z"/></g>
<g><path style="opacity:1" fill="#0d522a" d="M 158.5,84.5 C 159.447,79.1913 159.614,73.8579 159,68.5C 161.888,71.7216 164.388,75.2216 166.5,79C 165.333,80.1667 164.167,81.3333 163,82.5C 162.163,76.1635 161.497,76.4968 161,83.5C 160.329,84.2524 159.496,84.5858 158.5,84.5 Z"/></g>
<g><path style="opacity:1" fill="#92ab9c" d="M 79.5,68.5 C 78.1363,70.1911 76.803,71.8577 75.5,73.5C 74.5386,75.2646 74.2053,77.2646 74.5,79.5C 73.8333,78.1667 73.1667,76.8333 72.5,75.5C 72.1667,75.5 71.8333,75.5 71.5,75.5C 71.0825,74.7784 70.4158,74.2784 69.5,74C 71.5844,73.3028 73.2511,72.1361 74.5,70.5C 76.1667,69.8333 77.8333,69.1667 79.5,68.5 Z"/></g>
<g><path style="opacity:1" fill="#d5dfda" d="M 170.5,70.5 C 171.306,71.8675 172.306,73.2008 173.5,74.5C 172.675,75.3857 171.675,75.719 170.5,75.5C 170.5,73.8333 170.5,72.1667 170.5,70.5 Z"/></g>
<g><path style="opacity:1" fill="#c2d0c8" d="M 179.5,68.5 C 183.049,69.9567 184.216,72.6234 183,76.5C 182.617,73.4083 181.45,70.7416 179.5,68.5 Z"/></g>
<g><path style="opacity:1" fill="#bbcbc2" d="M 82.5,71.5 C 83.3764,71.3691 84.0431,71.7025 84.5,72.5C 83.1735,74.3113 82.1735,76.3113 81.5,78.5C 80.8679,76.2632 79.5346,74.5965 77.5,73.5C 79.0072,72.2612 80.1739,72.5946 81,74.5C 81.5133,73.4734 82.0133,72.4734 82.5,71.5 Z"/></g>
<g><path style="opacity:1" fill="#dee5e2" d="M 113.5,74.5 C 114.186,75.8484 115.186,77.015 116.5,78C 115.874,78.7504 115.374,79.5838 115,80.5C 113.681,78.7505 113.181,76.7505 113.5,74.5 Z"/></g>
<g><path style="opacity:1" fill="#c9d5ce" d="M 100.5,76.5 C 101.302,77.9516 101.802,79.6183 102,81.5C 102.718,80.5494 103.551,80.3828 104.5,81C 103.781,83.5562 102.114,84.7229 99.5,84.5C 99.4013,81.7628 99.7347,79.0961 100.5,76.5 Z"/></g>
<g><path style="opacity:1" fill="#7e9b8b" d="M 107.5,76.5 C 108.167,78.5 108.833,80.5 109.5,82.5C 109.5,82.8333 109.5,83.1667 109.5,83.5C 109.158,84.3382 108.492,84.6716 107.5,84.5C 107.5,81.8333 107.5,79.1667 107.5,76.5 Z"/></g>
<g><path style="opacity:1" fill="#e5ebe8" d="M 156.5,74.5 C 156.489,76.0174 155.823,77.1841 154.5,78C 149.833,79.6667 145.167,81.3333 140.5,83C 139.167,83.6667 139.167,84.3333 140.5,85C 141.793,85.49 143.127,85.6567 144.5,85.5C 144.281,86.675 144.614,87.675 145.5,88.5C 149.144,87.975 148.81,88.6417 144.5,90.5C 138.443,89.2259 133.943,85.8926 131,80.5C 126.794,86.0807 121.294,88.914 114.5,89C 113.929,87.7949 113.262,86.6283 112.5,85.5C 106.143,87.0599 99.8095,88.7266 93.5,90.5C 92.3691,88.9255 92.2025,87.2588 93,85.5C 93.3333,86.5 93.6667,87.5 94,88.5C 98.3683,87.7703 102.868,86.437 107.5,84.5C 108.492,84.6716 109.158,84.3382 109.5,83.5C 114.785,82.1075 119.618,79.7742 124,76.5C 123.806,73.41 122.973,70.41 121.5,67.5C 122.687,65.1878 124.02,65.3544 125.5,68C 125.043,68.414 124.709,68.914 124.5,69.5C 126.225,71.9567 126.725,74.6234 126,77.5C 122.254,80.2899 118.421,82.9566 114.5,85.5C 120.805,86.1047 125.972,83.7714 130,78.5C 128.995,73.4893 127.995,68.4893 127,63.5C 130.34,67.1827 132.34,71.5161 133,76.5C 135.559,73.4686 138.726,71.3019 142.5,70C 142.958,62.9593 145.791,61.7927 151,66.5C 151.492,67.549 151.326,68.549 150.5,69.5C 146.59,70.7502 142.59,72.5835 138.5,75C 144.51,75.4085 150.51,75.2419 156.5,74.5 Z"/></g>
<g><path style="opacity:1" fill="#0b4e25" d="M 132.5,79.5 C 135.976,78.3567 139.642,78.1901 143.5,79C 141.024,80.3088 139.024,82.1421 137.5,84.5C 135.451,83.1182 133.785,81.4516 132.5,79.5 Z"/></g>
<g><path style="opacity:1" fill="#25552c" d="M 144.5,66.5 C 146.983,66.73 147.483,67.3966 146,68.5C 144.97,68.1639 144.47,67.4972 144.5,66.5 Z"/></g>
<g><path style="opacity:1" fill="#bdccc4" d="M 135.5,66.5 C 136.5,67.5 137.5,68.5 138.5,69.5C 136.721,69.3744 134.721,69.7078 132.5,70.5C 132.343,69.1266 132.51,67.7932 133,66.5C 134.071,69.1125 134.905,69.1125 135.5,66.5 Z"/></g>
<g><path style="opacity:1" fill="#0c4c21" d="M 72.5,75.5 C 73.1667,76.8333 73.8333,78.1667 74.5,79.5C 74.5106,81.0174 75.1772,82.1841 76.5,83C 85.5113,84.0788 92.0113,80.5788 96,72.5C 96.7581,74.7695 96.5914,76.9361 95.5,79C 91.7789,81.5272 87.7789,83.5272 83.5,85C 75.3302,86.9952 71.6636,83.8285 72.5,75.5 Z"/></g>
<g><path style="opacity:1" fill="#d2dcd7" d="M 151.5,82.5 C 153.048,82.8212 153.715,83.8212 153.5,85.5C 150.752,85.5983 150.086,84.5983 151.5,82.5 Z"/></g>
<g><path style="opacity:1" fill="#819d88" d="M 178.5,87.5 C 176.708,87.634 175.042,87.3007 173.5,86.5C 173.866,85.3054 174.699,84.6387 176,84.5C 177.171,85.3396 178.338,86.1729 179.5,87C 179.272,87.3988 178.938,87.5654 178.5,87.5 Z"/></g>
<g><path style="opacity:1" fill="#e4eae7" d="M 187.5,83.5 C 193.458,84.0172 193.791,85.3506 188.5,87.5C 188.624,86.3895 188.291,85.0562 187.5,83.5 Z"/></g>
<g><path style="opacity:1" fill="#dce4e0" d="M 128.5,85.5 C 129.309,86.4687 130.309,87.3021 131.5,88C 129.179,89.7135 128.179,88.8802 128.5,85.5 Z"/></g>
<g><path style="opacity:1" fill="#dfe7e3" d="M 173.5,86.5 C 175.042,87.3007 176.708,87.634 178.5,87.5C 177.235,88.4793 175.901,89.4793 174.5,90.5C 174.624,89.3895 174.291,88.0562 173.5,86.5 Z"/></g>
<g><path style="opacity:1" fill="#d9e1dd" d="M 173.5,125.5 C 173.5,126.833 173.5,128.167 173.5,129.5C 177.833,129.5 182.167,129.5 186.5,129.5C 188.213,130.635 188.88,132.302 188.5,134.5C 186.833,134.5 185.167,134.5 183.5,134.5C 182.909,133.849 182.243,133.182 181.5,132.5C 178.232,131.513 174.898,131.18 171.5,131.5C 171.5,132.5 171.5,133.5 171.5,134.5C 170.791,135.404 169.791,135.737 168.5,135.5C 168.5,134.5 168.5,133.5 168.5,132.5C 142.165,132.667 115.831,132.5 89.5,132C 87.8839,131.385 86.5505,130.385 85.5,129C 113.831,128.5 142.165,128.333 170.5,128.5C 170.5,127.5 170.5,126.5 170.5,125.5C 171.5,125.5 172.5,125.5 173.5,125.5 Z"/></g>
<g><path style="opacity:1" fill="#a3b8ad" d="M 173.5,125.5 C 174.404,126.209 174.737,127.209 174.5,128.5C 178.702,128.183 182.702,128.517 186.5,129.5C 182.167,129.5 177.833,129.5 173.5,129.5C 173.5,128.167 173.5,126.833 173.5,125.5 Z"/></g>
<g><path style="opacity:1" fill="#6e917e" d="M 183.5,134.5 C 179.5,134.5 175.5,134.5 171.5,134.5C 171.5,133.5 171.5,132.5 171.5,131.5C 174.898,131.18 178.232,131.513 181.5,132.5C 182.243,133.182 182.909,133.849 183.5,134.5 Z"/></g>
</svg>
